<svg xmlns="http://www.w3.org/2000/svg" width="18" height="18" viewBox="0 0 18 18" fill="none">
    <path d="M10.1471 6.26389C9.7178 6.56996 9.19243 6.75 8.625 6.75C7.17525 6.75 6 5.57475 6 4.125C6 2.67525 7.17525 1.5 8.625 1.5C9.56474 1.5 10.3891 1.99381 10.8529 2.73611M4.5 15.0654H6.45772C6.71297 15.0654 6.96666 15.0957 7.21411 15.1565L9.28267 15.6592C9.73151 15.7685 10.1991 15.7791 10.6526 15.6911L12.9397 15.2461C13.5439 15.1284 14.0997 14.8391 14.5353 14.4154L16.1534 12.8413C16.6155 12.3925 16.6155 11.6643 16.1534 11.2148C15.7374 10.8101 15.0785 10.7645 14.6078 11.1077L12.7219 12.4836C12.4519 12.6811 12.1232 12.7874 11.7852 12.7874H9.96412L11.1233 12.7873C11.7767 12.7873 12.3059 12.2725 12.3059 11.6369V11.4069C12.3059 10.8791 11.9367 10.419 11.4106 10.2914L9.62145 9.85631C9.33029 9.78569 9.0321 9.75 8.73235 9.75C8.00875 9.75 6.69892 10.3491 6.69892 10.3491L4.5 11.2687M15 4.875C15 6.32475 13.8247 7.5 12.375 7.5C10.9253 7.5 9.75 6.32475 9.75 4.875C9.75 3.42525 10.9253 2.25 12.375 2.25C13.8247 2.25 15 3.42525 15 4.875ZM1.5 10.95L1.5 15.3C1.5 15.72 1.5 15.9301 1.58175 16.0905C1.65365 16.2316 1.76839 16.3463 1.90951 16.4183C2.06994 16.5 2.27996 16.5 2.7 16.5H3.3C3.72004 16.5 3.93006 16.5 4.09049 16.4183C4.23161 16.3463 4.34635 16.2316 4.41825 16.0905C4.5 15.9301 4.5 15.72 4.5 15.3V10.95C4.5 10.53 4.5 10.3199 4.41825 10.1595C4.34635 10.0184 4.23161 9.90365 4.09049 9.83175C3.93006 9.75 3.72004 9.75 3.3 9.75L2.7 9.75C2.27996 9.75 2.06994 9.75 1.90951 9.83175C1.76839 9.90365 1.65365 10.0184 1.58175 10.1595C1.5 10.3199 1.5 10.53 1.5 10.95Z" stroke="#DD2C2F" stroke-linecap="round" stroke-linejoin="round"/>
</svg>